<svg
   class="bubblesvgcode"
   viewBox="-20 0 350 60"
   width="310mm"
   height="60mm"
   xmlns="http://www.w3.org/2000/svg">
  <g
     class="layer1"
     inkscape:groupmode="layer"
     inkscape:label="layer1">
    <path
       class="path3422"
       d="m 17.545805,18.944856 c -1.921301,0 -3.588087,1.031701 -4.520429,2.555422 -0.865035,-0.608805 -1.913629,-0.976895 -3.0525993,-0.976895 -2.931161,0 -5.3128134,2.372217 -5.3128134,5.292004 0,0.21456 0.039973,0.419643 0.06496,0.627533 -2.531478,0.40232 -4.47492369,2.56706 -4.47492369,5.201534 0,2.610116 1.90614219,4.770692 4.40348929,5.201532 -0.050646,0.293038 -0.090924,0.591868 -0.090924,0.899222 0,2.919621 2.3815465,5.28566 5.3128144,5.28566 1.4357097,0 2.7329987,-0.571264 3.6891527,-1.494455 0.974328,1.154416 2.414828,1.908443 4.04632,1.908443 2.327838,0 4.284698,-1.506481 5.001151,-3.583812 0.5734,0.211203 1.184767,0.349334 1.831532,0.349334 2.931162,0 5.306465,-2.372217 5.306465,-5.292004 0,-1.468224 -0.600917,-2.793569 -1.571806,-3.752066 0.490141,-0.801 0.792385,-1.730563 0.792385,-2.736501 0,-2.919621 -2.381546,-5.28566 -5.312814,-5.28566 -0.308541,0 -0.608589,0.03363 -0.902763,0.0841 -0.47334,-2.437642 -2.624049,-4.282479 -5.208838,-4.282479 z"
       fill="none"
       stroke="#000000"
       stroke-linejoin="round"
       stroke-width=".5"
       id="path1"
       style="stroke-width:0.5;stroke-dasharray:none" />
    <path
       class="path3422"
       d="m 87.545805,18.944856 c -1.921301,0 -3.588087,1.031701 -4.520429,2.555422 -0.865035,-0.608805 -1.913629,-0.976895 -3.0525993,-0.976895 -2.931161,0 -5.3128134,2.372217 -5.3128134,5.292004 0,0.21456 0.039973,0.419643 0.06496,0.627533 -2.531478,0.40232 -4.47492369,2.56706 -4.47492369,5.201534 0,2.610116 1.90614219,4.770692 4.40348929,5.201532 -0.050646,0.293038 -0.090924,0.591868 -0.090924,0.899222 0,2.919621 2.3815465,5.28566 5.3128144,5.28566 1.4357097,0 2.7329987,-0.571264 3.6891527,-1.494455 0.974328,1.154416 2.414828,1.908443 4.04632,1.908443 2.327838,0 4.284698,-1.506481 5.001151,-3.583812 0.5734,0.211203 1.184767,0.349334 1.831532,0.349334 2.931162,0 5.306465,-2.372217 5.306465,-5.292004 0,-1.468224 -0.600917,-2.793569 -1.571806,-3.752066 0.490141,-0.801 0.792385,-1.730563 0.792385,-2.736501 0,-2.919621 -2.381546,-5.28566 -5.312814,-5.28566 -0.308541,0 -0.608589,0.03363 -0.902763,0.0841 -0.47334,-2.437642 -2.624049,-4.282479 -5.208838,-4.282479 z"
       fill="none"
       stroke="#000000"
       stroke-linejoin="round"
       stroke-width=".5"
       id="path1"
       style="stroke-width:0.5;stroke-dasharray:none" />
    <path
       class="path3422"
       d="m 157.545805,18.944856 c -1.921301,0 -3.588087,1.031701 -4.520429,2.555422 -0.865035,-0.608805 -1.913629,-0.976895 -3.0525993,-0.976895 -2.931161,0 -5.3128134,2.372217 -5.3128134,5.292004 0,0.21456 0.039973,0.419643 0.06496,0.627533 -2.531478,0.40232 -4.47492369,2.56706 -4.47492369,5.201534 0,2.610116 1.90614219,4.770692 4.40348929,5.201532 -0.050646,0.293038 -0.090924,0.591868 -0.090924,0.899222 0,2.919621 2.3815465,5.28566 5.3128144,5.28566 1.4357097,0 2.7329987,-0.571264 3.6891527,-1.494455 0.974328,1.154416 2.414828,1.908443 4.04632,1.908443 2.327838,0 4.284698,-1.506481 5.001151,-3.583812 0.5734,0.211203 1.184767,0.349334 1.831532,0.349334 2.931162,0 5.306465,-2.372217 5.306465,-5.292004 0,-1.468224 -0.600917,-2.793569 -1.571806,-3.752066 0.490141,-0.801 0.792385,-1.730563 0.792385,-2.736501 0,-2.919621 -2.381546,-5.28566 -5.312814,-5.28566 -0.308541,0 -0.608589,0.03363 -0.902763,0.0841 -0.47334,-2.437642 -2.624049,-4.282479 -5.208838,-4.282479 z"
       fill="none"
       stroke="#000000"
       stroke-linejoin="round"
       stroke-width=".5"
       id="path1"
       style="stroke-width:0.5;stroke-dasharray:none" />
    <path
       class="path3422"
       d="m 227.545805,18.944856 c -1.921301,0 -3.588087,1.031701 -4.520429,2.555422 -0.865035,-0.608805 -1.913629,-0.976895 -3.0525993,-0.976895 -2.931161,0 -5.3128134,2.372217 -5.3128134,5.292004 0,0.21456 0.039973,0.419643 0.06496,0.627533 -2.531478,0.40232 -4.47492369,2.56706 -4.47492369,5.201534 0,2.610116 1.90614219,4.770692 4.40348929,5.201532 -0.050646,0.293038 -0.090924,0.591868 -0.090924,0.899222 0,2.919621 2.3815465,5.28566 5.3128144,5.28566 1.4357097,0 2.7329987,-0.571264 3.6891527,-1.494455 0.974328,1.154416 2.414828,1.908443 4.04632,1.908443 2.327838,0 4.284698,-1.506481 5.001151,-3.583812 0.5734,0.211203 1.184767,0.349334 1.831532,0.349334 2.931162,0 5.306465,-2.372217 5.306465,-5.292004 0,-1.468224 -0.600917,-2.793569 -1.571806,-3.752066 0.490141,-0.801 0.792385,-1.730563 0.792385,-2.736501 0,-2.919621 -2.381546,-5.28566 -5.312814,-5.28566 -0.308541,0 -0.608589,0.03363 -0.902763,0.0841 -0.47334,-2.437642 -2.624049,-4.282479 -5.208838,-4.282479 z"
       fill="none"
       stroke="#000000"
       stroke-linejoin="round"
       stroke-width=".5"
       id="path1"
       style="stroke-width:0.5;stroke-dasharray:none" />
    <path
       class="path3422"
       d="m 297.545805,18.944856 c -1.921301,0 -3.588087,1.031701 -4.520429,2.555422 -0.865035,-0.608805 -1.913629,-0.976895 -3.0525993,-0.976895 -2.931161,0 -5.3128134,2.372217 -5.3128134,5.292004 0,0.21456 0.039973,0.419643 0.06496,0.627533 -2.531478,0.40232 -4.47492369,2.56706 -4.47492369,5.201534 0,2.610116 1.90614219,4.770692 4.40348929,5.201532 -0.050646,0.293038 -0.090924,0.591868 -0.090924,0.899222 0,2.919621 2.3815465,5.28566 5.3128144,5.28566 1.4357097,0 2.7329987,-0.571264 3.6891527,-1.494455 0.974328,1.154416 2.414828,1.908443 4.04632,1.908443 2.327838,0 4.284698,-1.506481 5.001151,-3.583812 0.5734,0.211203 1.184767,0.349334 1.831532,0.349334 2.931162,0 5.306465,-2.372217 5.306465,-5.292004 0,-1.468224 -0.600917,-2.793569 -1.571806,-3.752066 0.490141,-0.801 0.792385,-1.730563 0.792385,-2.736501 0,-2.919621 -2.381546,-5.28566 -5.312814,-5.28566 -0.308541,0 -0.608589,0.03363 -0.902763,0.0841 -0.47334,-2.437642 -2.624049,-4.282479 -5.208838,-4.282479 z"
       fill="none"
       stroke="#000000"
       stroke-linejoin="round"
       stroke-width=".5"
       id="path1"
       style="stroke-width:0.5;stroke-dasharray:none" />
    <text
       style="font-size:8px;line-height:0;font-family:Arial;-inkscape-font-specification:'Arial, Normal';fill:none;stroke:#000000;stroke-width:0;stroke-dasharray:none"
       x="5.5"
       y="34.618504"
       id="text5"><tspan
         id="tspan5"
         style="font-size:8px;fill:#000000;stroke-width:0;stroke-dasharray:none"
         x="5.5"
         y="34.618504">NOP</tspan></text>
    <text
       style="font-size:8px;line-height:0;font-family:Arial;-inkscape-font-specification:'Arial, Normal';fill:none;stroke:#000000;stroke-width:0;stroke-dasharray:none"
       x="75.5"
       y="34.618504"
       id="text5-1"><tspan
         id="tspan5-7"
         style="font-size:8px;fill:#000000;stroke-width:0;stroke-dasharray:none"
         x="75.5"
         y="34.618504">NOP</tspan></text>
    <text
       style="font-size:8px;line-height:0;font-family:Arial;-inkscape-font-specification:'Arial, Normal';fill:none;stroke:#000000;stroke-width:0;stroke-dasharray:none"
       x="145.5"
       y="34.618504"
       id="text5-3"><tspan
         id="tspan5-2"
         style="font-size:8px;fill:#000000;stroke-width:0;stroke-dasharray:none"
         x="145.5"
         y="34.618504">NOP</tspan></text>
    <text
       style="font-size:8px;line-height:0;font-family:Arial;-inkscape-font-specification:'Arial, Normal';fill:none;stroke:#000000;stroke-width:0;stroke-dasharray:none"
       x="215.5"
       y="34.618504"
       id="text5-9"><tspan
         id="tspan5-8"
         style="font-size:8px;fill:#000000;stroke-width:0;stroke-dasharray:none"
         x="215.5"
         y="34.618504">NOP</tspan></text>
    <text
       style="font-size:8px;line-height:0;font-family:Arial;-inkscape-font-specification:'Arial, Normal';fill:none;stroke:#000000;stroke-width:0;stroke-dasharray:none"
       x="285.5"
       y="34.618504"
       id="text5-0"><tspan
         id="tspan5-6"
         style="font-size:8px;fill:#000000;stroke-width:0;stroke-dasharray:none"
         x="285.5"
         y="34.618504">NOP</tspan></text>
  </g>
</svg>
